
<svg width="319.75" height="405" version="1.1" baseProfile="full" viewbox="0 0 319.75 405" xmlns="http://www.w3.org/2000/svg" xmlns:xlink="http://www.w3.org/1999/xlink" xmlns:ev="http://www.w3.org/2001/xml-events" style="font-weight:bold; font-size:12pt; font-family:'IBM Plex Mono', monospace;stroke-width:3;stroke-linejoin:round;stroke-linecap:round"><path d="M92.3 68 L63.5 84.5 L63.5 100.5 L63.5 100.5 " style="stroke:#33322E;fill:none;stroke-dasharray:none;"></path>
<path d="M59.2 89.8 L63.5 95.2 L67.8 89.8 L63.5 100.5 Z" style="stroke:#33322E;fill:#33322E;stroke-dasharray:none;"></path>
<path d="M85.1 77 L87.6 70.6 L80.9 69.6 L92.3 68 Z" style="stroke:#33322E;fill:#33322E;stroke-dasharray:none;"></path>
<path d="M172.3 60.3 L235.8 84.5 L235.8 100.5 L235.8 100.5 " style="stroke:#33322E;fill:none;stroke-dasharray:none;"></path>
<path d="M231.5 89.8 L235.8 95.2 L240 89.8 L235.8 100.5 Z" style="stroke:#33322E;fill:#33322E;stroke-dasharray:none;"></path>
<path d="M235.8 147.5 L235.8 163.5 L235.8 179.5 L235.8 179.5 " style="stroke:#33322E;fill:none;stroke-dasharray:none;"></path>
<path d="M231.5 168.8 L235.8 174.2 L240 168.8 L235.8 179.5 Z" style="stroke:#33322E;fill:#33322E;stroke-dasharray:none;"></path>
<path d="M91.9 147.5 L111.3 163.5 L111.3 179.5 L111.3 179.5 " style="stroke:#33322E;fill:none;stroke-dasharray:none;"></path>
<path d="M107 168.8 L111.3 174.2 L115.5 168.8 L111.3 179.5 Z" style="stroke:#33322E;fill:#33322E;stroke-dasharray:none;"></path>
<path d="M111.3 226.5 L111.3 242.5 L139.1 258.5 L139.1 258.5 " style="stroke:#33322E;fill:none;stroke-dasharray:none;"></path>
<path d="M127.7 256.9 L134.5 255.8 L132 249.5 L139.1 258.5 Z" style="stroke:#33322E;fill:#33322E;stroke-dasharray:none;"></path>
<path d="M235.8 226.5 L235.8 242.5 L213.2 258.5 L213.2 258.5 " style="stroke:#33322E;fill:none;stroke-dasharray:none;"></path>
<path d="M219.4 248.9 L217.5 255.4 L224.3 255.8 L213.2 258.5 Z" style="stroke:#33322E;fill:#33322E;stroke-dasharray:none;"></path>
<path d="M43.6 147.5 L30 163.5 L30 203 L30 203 L30 242.5 L30 242.5 L30 282 L30 282 L30 321.5 L30 321.5 L73.3 338.2 L73.3 338.2 " style="stroke:#33322E;fill:none;stroke-dasharray:none;"></path>
<path d="M39.9 158.4 L40.1 151.6 L33.4 152.9 L43.6 147.5 Z" style="stroke:#33322E;fill:#33322E;stroke-dasharray:none;"></path>
<path d="M180 305.5 L180 321.5 L160.7 337.5 L160.7 337.5 " style="stroke:#33322E;fill:none;stroke-dasharray:none;"></path>
<path d="M166.2 327.4 L164.8 334.1 L171.6 334 L160.7 337.5 Z" style="stroke:#33322E;fill:#33322E;stroke-dasharray:none;"></path>
<circle r="8" cx="132.3" cy="17.5" style="stroke:#33322E;fill:#eee8d5;stroke-dasharray:none;"></circle>
<path d="M132.3 25.5 L132.3 41.5" style="stroke:#33322E;fill:none;stroke-dasharray:none;"></path>
<path d="M124.3 33.5 L140.3 33.5" style="stroke:#33322E;fill:none;stroke-dasharray:none;"></path>
<path d="M124.3 49.5 L132.3 41.5 L140.3 49.5" style="stroke:#33322E;fill:none;stroke-dasharray:none;"></path>
<text x="132.5" y="63" style="font-weight:normal;text-anchor: middle;">Alice</text>
<rect x="21.5" y="100.5" rx="23.5" ry="23.5" height="47" width="84" style="stroke:#33322E;fill:#fff;stroke-dasharray:none;"></rect>
<text x="63.5" y="130" style="font-weight:normal;text-anchor: middle;">MyApp</text>
<rect x="172.5" y="100.5" height="47" width="127" style="stroke:#33322E;fill:#f8f8f8;stroke-dasharray:none;"></rect>
<text x="236" y="130" style="font-weight:normal;text-anchor: middle;">hc.session</text>
<rect x="191.5" y="179.5" height="47" width="89" style="stroke:#33322E;fill:#f8f8f8;stroke-dasharray:none;"></rect>
<text x="236" y="209" style="font-weight:normal;text-anchor: middle;">hc.key</text>
<path d="M76.5 179.5 L130.5 179.5 L146.5 195.5 L146.5 226.5 L76.5 226.5 L76.5 179.5 Z" style="stroke:#33322E;fill:#f88;stroke-dasharray:none;"></path>
<path d="M130.5 179.5 L130.5 195.5 L146.5 195.5" style="stroke:#33322E;fill:none;stroke-dasharray:none;"></path>
<text x="111.5" y="209" style="font-weight:normal;text-anchor: middle;">data</text>
<rect x="116.5" y="258.5" height="47" width="127" style="stroke:#33322E;fill:#f8f8f8;stroke-dasharray:none;"></rect>
<text x="180" y="288" style="font-weight:normal;text-anchor: middle;">hc.encrypt</text>
<path d="M73.5 337.5 L175.5 337.5 L191.5 353.5 L191.5 384.5 L73.5 384.5 L73.5 337.5 Z" style="stroke:#33322E;fill:#8f8;stroke-dasharray:none;"></path>
<path d="M175.5 337.5 L175.5 353.5 L191.5 353.5" style="stroke:#33322E;fill:none;stroke-dasharray:none;"></path>
<text x="132.5" y="367" style="font-weight:normal;text-anchor: middle;">encrypted</text></svg>